<svg width="420" height="420" viewBox="0 0 420 420" fill="none" xmlns="http://www.w3.org/2000/svg">
  <rect width="420" height="420" rx="24" fill="#FFFFFF"/>
  <rect x="28" y="28" width="364" height="364" rx="18" fill="#F8FAFC"/>
  <rect x="54" y="54" width="86" height="86" rx="8" fill="#111827"/>
  <rect x="74" y="74" width="46" height="46" rx="4" fill="#FFFFFF"/>
  <rect x="84" y="84" width="26" height="26" rx="3" fill="#111827"/>
  <rect x="280" y="54" width="86" height="86" rx="8" fill="#111827"/>
  <rect x="300" y="74" width="46" height="46" rx="4" fill="#FFFFFF"/>
  <rect x="310" y="84" width="26" height="26" rx="3" fill="#111827"/>
  <rect x="54" y="280" width="86" height="86" rx="8" fill="#111827"/>
  <rect x="74" y="300" width="46" height="46" rx="4" fill="#FFFFFF"/>
  <rect x="84" y="310" width="26" height="26" rx="3" fill="#111827"/>
  <rect x="170" y="58" width="22" height="22" fill="#111827"/>
  <rect x="210" y="58" width="22" height="22" fill="#111827"/>
  <rect x="170" y="98" width="62" height="22" fill="#111827"/>
  <rect x="54" y="170" width="22" height="22" fill="#111827"/>
  <rect x="94" y="170" width="62" height="22" fill="#111827"/>
  <rect x="196" y="156" width="22" height="62" fill="#111827"/>
  <rect x="238" y="156" width="62" height="22" fill="#111827"/>
  <rect x="342" y="168" width="22" height="62" fill="#111827"/>
  <rect x="156" y="238" width="62" height="22" fill="#111827"/>
  <rect x="238" y="238" width="22" height="62" fill="#111827"/>
  <rect x="282" y="238" width="84" height="22" fill="#111827"/>
  <rect x="170" y="318" width="22" height="48" fill="#111827"/>
  <rect x="210" y="318" width="62" height="22" fill="#111827"/>
  <rect x="304" y="304" width="22" height="62" fill="#111827"/>
  <rect x="344" y="344" width="22" height="22" fill="#111827"/>
  <path d="M150 215C150 183 180 157 218 157C256 157 286 183 286 215C286 247 256 273 218 273C208 273 198 271 190 268L158 286L169 257C157 246 150 231 150 215Z" fill="url(#wechatGradient)" opacity="0.92"/>
  <circle cx="197" cy="214" r="8" fill="white"/>
  <circle cx="239" cy="214" r="8" fill="white"/>
  <text x="210" y="405" text-anchor="middle" fill="#334155" font-family="Arial, sans-serif" font-size="18" font-weight="700">替换为个人微信二维码</text>
  <defs>
    <linearGradient id="wechatGradient" x1="150" y1="157" x2="286" y2="286" gradientUnits="userSpaceOnUse">
      <stop stop-color="#3B82F6"/>
      <stop offset="1" stop-color="#9333EA"/>
    </linearGradient>
  </defs>
</svg>
